# xmcd
#
# Track frame offsets:
#	150
#	12464
#	32997
#	52880
#	62723
#	71549
#	84224
#	101585
#	123171
#	132037
#	147489
#	163845
#	177720
#	192828
#
# Disc length: 2714 seconds
#
# Revision: 1
# Processed by: cddbd v1.5.2PL0 Copyright (c) Steve Scherf et al.
# Submitted via: audiograbber 1.83.01
#
DISCID=c30a980e
DTITLE=Sunnny Side  - ONE HORSE TOWN
DYEAR=2018
DGENRE=Bluegrass
TTITLE0=Fox on The Run
TTITLE1=Sitting Alone In The Moonlight
TTITLE2=Baby Blue Eyes
TTITLE3=Little Magie
TTITLE4=Vzhuru jit
TTITLE5=One Horse Town
TTITLE6=Bluegrass Song No. 1
TTITLE7=Erase The Miles
TTITLE8=S virou plout /One The Sea Of Life
TTITLE9=Mou zpravu dejte lidem - Get Down Brother
TTITLE10=To vím jen já
TTITLE11=Raining In L.A.
TTITLE12=Whan Child Is This
TTITLE13=How Mountain Girls Can Love
EXTD=www.sunnyside.cz
EXTT0=
EXTT1=
EXTT2=
EXTT3=
EXTT4=
EXTT5=
EXTT6=
EXTT7=
EXTT8=
EXTT9=
EXTT10=
EXTT11=
EXTT12=
EXTT13=
PLAYORDER=
